HIERARCHY
ROOT Hips
{
	OFFSET 0.000000 0.000000 0.000000
	CHANNELS 6 Xposition Yposition Zposition Xrotation Yrotation Zrotation
	JOINT Chest
	{
		OFFSET 0.000000 0.009282 11.569106
		CHANNELS 3 Xrotation Yrotation Zrotation
		JOINT Chest2
		{
			OFFSET 0.000000 -0.016863 9.269641
			CHANNELS 3 Xrotation Yrotation Zrotation
			JOINT Chest3
			{
				OFFSET 0.000000 0.000000 8.374491
				CHANNELS 3 Xrotation Yrotation Zrotation
				JOINT Chest4
				{
					OFFSET 0.000000 0.000000 8.374493
					CHANNELS 3 Xrotation Yrotation Zrotation
					JOINT Neck
					{
						OFFSET 0.000000 -0.000001 12.152554
						CHANNELS 3 Xrotation Yrotation Zrotation
						JOINT Head
						{
							OFFSET 0.000000 -0.040100 7.802319
							CHANNELS 3 Xrotation Yrotation Zrotation
							End Site
							{
								OFFSET 0.000000 -0.020946 14.853096
							}
						}
					}
					JOINT RightCollar
					{
						OFFSET -2.894404 0.000000 6.791374
						CHANNELS 3 Xrotation Yrotation Zrotation
						JOINT RightShoulder
						{
							OFFSET -13.574684 0.000000 0.000000
							CHANNELS 3 Xrotation Yrotation Zrotation
							JOINT RightElbow
							{
								OFFSET -23.923903 0.000000 0.000000
								CHANNELS 3 Xrotation Yrotation Zrotation
								JOINT RightWrist
								{
									OFFSET -19.846718 -0.012765 0.000000
									CHANNELS 3 Xrotation Yrotation Zrotation
									End Site
									{
										OFFSET -14.973145 0.000000 0.000000
									}
								}
							}
						}
					}
					JOINT LeftCollar
					{
						OFFSET 2.894404 0.000000 6.791374
						CHANNELS 3 Xrotation Yrotation Zrotation
						JOINT LeftShoulder
						{
							OFFSET 13.574684 0.000000 0.000000
							CHANNELS 3 Xrotation Yrotation Zrotation
							JOINT LeftElbow
							{
								OFFSET 23.923903 0.000000 0.000000
								CHANNELS 3 Xrotation Yrotation Zrotation
								JOINT LeftWrist
								{
									OFFSET 19.846718 -0.012765 0.000000
									CHANNELS 3 Xrotation Yrotation Zrotation
									End Site
									{
										OFFSET 14.973145 0.000000 0.000000
									}
								}
							}
						}
					}
				}
			}
		}
	}
	JOINT RightHip
	{
		OFFSET -9.469263 -0.004642 0.045487
		CHANNELS 3 Xrotation Yrotation Zrotation
		JOINT RightKnee
		{
			OFFSET 0.000000 -0.002666 -40.478676
			CHANNELS 3 Xrotation Yrotation Zrotation
			JOINT RightAnkle
			{
				OFFSET 0.000000 -0.049110 -35.224068
				CHANNELS 3 Xrotation Yrotation Zrotation
				JOINT RightToe
				{
					OFFSET 0.000000 -12.539530 -6.151390
					CHANNELS 3 Xrotation Yrotation Zrotation
					End Site
					{
						OFFSET 0.000000 -5.044995 -1.291870
					}
				}
			}
		}
	}
	JOINT LeftHip
	{
		OFFSET 9.469263 -0.004642 0.045487
		CHANNELS 3 Xrotation Yrotation Zrotation
		JOINT LeftKnee
		{
			OFFSET 0.000000 -0.002666 -40.478676
			CHANNELS 3 Xrotation Yrotation Zrotation
			JOINT LeftAnkle
			{
				OFFSET 0.000000 -0.049110 -35.224068
				CHANNELS 3 Xrotation Yrotation Zrotation
				JOINT LeftToe
				{
					OFFSET 0.000000 -12.539530 -6.151390
					CHANNELS 3 Xrotation Yrotation Zrotation
					End Site
					{
						OFFSET 0.000000 -5.044995 -1.291870
					}
				}
			}
		}
	}
}
MOTION
Frames: 14
Frame Time: 0.016667
-70.664421 -22.485062 82.355400 0.484164 0.962978 -102.085271 1.547088 0.257113 0.272602 0.839437 0.108955 0.436477 0.839437 0.108955 0.436470 0.629656 0.081118 0.327504 18.318241 -2.920162 -5.807195 -2.209191 -3.418639 -11.566685 -5.550736 -9.319176 -2.443690 19.136664 -40.441072 -2.715220 69.550409 13.759205 65.567022 -56.982629 42.778626 83.229202 -3.917226 9.207846 -2.242728 17.842390 40.348192 11.062809 63.168759 -8.514607 -61.283927 -23.756224 -27.536891 -80.445879 4.067084 -6.980964 -17.867519 -0.198352 -3.621162 -5.159483 -5.339312 5.360023 1.083404 -0.126875 0.487709 -0.857639 -11.192453 -4.521823 26.337662 -0.019126 3.352811 20.183072 14.913638 -7.636076 9.683802 0.052447 -0.158860 0.410748 
-70.664421 -22.485062 82.355400 0.484164 0.962978 -102.085271 1.547088 0.257113 0.272602 0.839437 0.108955 0.436477 0.839437 0.108955 0.436470 0.629656 0.081118 0.327504 18.318241 -2.920162 -5.807195 -2.209191 -3.418639 -11.566685 -5.550736 -9.319176 -2.443690 19.136664 -40.441072 -2.715220 69.550409 13.759205 65.567022 -56.982629 42.778626 83.229202 -3.917226 9.207846 -2.242728 17.842390 40.348192 11.062809 63.168759 -8.514607 -61.283927 -23.756224 -27.536891 -80.445879 4.067084 -6.980964 -17.867519 -0.198352 -3.621162 -5.159483 -5.339312 5.360023 1.083404 -0.126875 0.487709 -0.857639 -11.192453 -4.521823 26.337662 -0.019126 3.352811 20.183072 14.913638 -7.636076 9.683802 0.052447 -0.158860 0.410748 
-70.654068 -22.455332 82.353363 0.456760 0.992233 -102.143389 1.556170 0.274948 0.299789 0.835885 0.111700 0.440010 0.835885 0.111700 0.440008 0.626994 0.083173 0.330161 18.450211 -2.912649 -5.787043 -1.964407 -3.422738 -11.523515 -5.531277 -9.313707 -2.446508 19.126678 -40.431107 -2.731344 69.564753 13.749208 65.575417 -56.969040 42.769214 83.221477 -3.891540 9.217532 -2.239707 17.810902 40.325099 11.085260 63.193545 -8.528581 -61.304991 -23.730427 -27.533053 -80.406968 4.086855 -6.951826 -17.780125 -0.186469 -3.642977 -5.187152 -5.363021 5.371704 1.078561 -0.105242 0.489307 -0.846376 -11.173373 -4.519121 26.348993 -0.015421 3.329706 20.199817 14.956181 -7.662075 9.678498 0.031932 -0.112516 0.361989 
-70.642082 -22.424038 82.351242 0.451876 1.011506 -102.170348 1.562317 0.278654 0.295188 0.833894 0.113486 0.444208 0.833894 0.113486 0.444203 0.625503 0.084508 0.333313 18.595327 -2.910111 -5.766717 -1.695730 -3.436976 -11.481301 -5.488299 -9.307379 -2.448561 19.100530 -40.444023 -2.746771 69.568837 13.753120 65.577828 -56.935566 42.759532 83.196342 -3.850740 9.206478 -2.242176 17.784505 40.310216 11.089954 63.209139 -8.535321 -61.321247 -23.726843 -27.532305 -80.388526 4.101596 -6.956218 -17.735281 -0.179720 -3.652919 -5.189296 -5.370702 5.371503 1.063780 -0.097267 0.495970 -0.842374 -11.153625 -4.536395 26.340508 -0.024675 3.322237 20.216631 14.969512 -7.692329 9.630591 0.038649 -0.086707 0.350583 
-70.627228 -22.388477 82.348923 0.460927 1.030800 -102.198816 1.574662 0.276353 0.286502 0.834497 0.114743 0.450088 0.834497 0.114743 0.450092 0.625959 0.085443 0.337723 18.751176 -2.912089 -5.745555 -1.407610 -3.460514 -11.438699 -5.428215 -9.320731 -2.442220 19.064316 -40.445088 -2.766005 69.547001 13.756680 65.584679 -56.921615 42.757783 83.186943 -3.792959 9.189786 -2.245428 17.773882 40.305418 11.060305 63.201639 -8.541971 -61.330591 -23.734550 -27.528241 -80.390316 4.120198 -6.982416 -17.718322 -0.179575 -3.657521 -5.160859 -5.364191 5.375821 1.042324 -0.098019 0.498759 -0.828887 -11.132075 -4.582242 26.345505 -0.017299 3.329337 20.239259 14.959830 -7.715175 9.579521 0.052571 -0.075292 0.342482 
-70.615440 -22.346716 82.347198 0.459853 1.058540 -102.241764 1.592667 0.276923 0.288602 0.835227 0.118542 0.455078 0.835227 0.118542 0.455076 0.626509 0.088285 0.341472 18.925515 -2.917704 -5.721104 -1.085631 -3.493189 -11.390670 -5.385456 -9.329716 -2.446980 19.061557 -40.454606 -2.767367 69.524455 13.759833 65.577746 -56.911202 42.749860 83.177764 -3.736820 9.171713 -2.254953 17.774843 40.324856 11.032098 63.174844 -8.549888 -61.341082 -23.734149 -27.516020 -80.366533 4.153628 -6.993143 -17.719843 -0.182163 -3.674614 -5.152939 -5.368841 5.369999 1.079717 -0.095194 0.510843 -0.827410 -11.094135 -4.620314 26.376013 -0.017507 3.333849 20.245874 14.951583 -7.722996 9.529373 0.064236 -0.071941 0.349441 
-70.600540 -22.306866 82.345825 0.440100 1.065185 -102.281277 1.594017 0.289356 0.286309 0.833168 0.125668 0.457201 0.833168 0.125668 0.457198 0.624970 0.093628 0.343072 19.119972 -2.927712 -5.687695 -0.726985 -3.538239 -11.327012 -5.354983 -9.331636 -2.448480 19.083528 -40.457861 -2.750701 69.485898 13.749581 65.578914 -56.901387 42.749413 83.169861 -3.697832 9.162774 -2.262107 17.760611 40.331680 11.027983 63.164695 -8.567776 -61.341348 -23.723115 -27.505976 -80.369668 4.156138 -6.990358 -17.749751 -0.176139 -3.682229 -5.167769 -5.389475 5.340679 1.168394 -0.083428 0.530279 -0.836881 -11.079595 -4.636706 26.381583 -0.028797 3.334254 20.232383 14.949693 -7.745055 9.541869 0.077360 -0.051762 0.346181 
-70.583267 -22.269915 82.343636 0.420286 1.080866 -102.308645 1.604120 0.307287 0.272089 0.829786 0.133507 0.458935 0.829786 0.133507 0.458935 0.622440 0.099507 0.344383 19.341383 -2.941460 -5.647339 -0.318869 -3.594328 -11.250895 -5.334621 -9.332732 -2.454461 19.078942 -40.467997 -2.755340 69.496383 13.730793 65.574864 -56.881354 42.748231 83.159985 -3.681323 9.152961 -2.268040 17.737363 40.320488 11.034246 63.191196 -8.568296 -61.354927 -23.719811 -27.502042 -80.378254 4.171468 -6.988766 -17.813036 -0.180988 -3.691260 -5.156077 -5.411172 5.310951 1.236001 -0.067385 0.547946 -0.834290 -11.068130 -4.645348 26.331892 -0.017513 3.317777 20.199233 14.925000 -7.781062 9.503655 0.104233 -0.005384 0.324897 
-70.567101 -22.233269 82.340149 0.406861 1.104379 -102.356347 1.620480 0.324153 0.271458 0.824828 0.141053 0.460951 0.824828 0.141053 0.460949 0.618727 0.105167 0.345905 19.596646 -2.960699 -5.598200 0.151344 -3.665653 -11.159270 -5.324523 -9.335802 -2.459437 19.077113 -40.500693 -2.764858 69.519906 13.728258 65.529928 -56.848925 42.742941 83.134071 -3.678823 9.153254 -2.269192 17.723933 40.293089 11.038882 63.227853 -8.576389 -61.357392 -23.751493 -27.489643 -80.397556 4.205984 -6.999309 -17.850141 -0.210209 -3.691845 -5.169327 -5.428225 5.264154 1.301293 -0.048465 0.571537 -0.816445 -11.050197 -4.644844 26.271751 -0.013372 3.283411 20.166292 14.885431 -7.826374 9.526359 0.137518 0.046174 0.290518 
-70.540840 -22.206903 82.334808 0.394851 1.136917 -102.428809 1.642976 0.347893 0.283554 0.821730 0.147931 0.464734 0.821730 0.147931 0.464733 0.616410 0.110324 0.348751 19.889738 -2.981041 -5.536999 0.691401 -3.745385 -11.044441 -5.306987 -9.340523 -2.462853 19.074111 -40.517587 -2.766889 69.537118 13.734928 65.503283 -56.831463 42.749522 83.117774 -3.674212 9.151211 -2.271478 17.722833 40.269873 11.050499 63.242170 -8.584329 -61.364250 -23.777514 -27.477849 -80.422124 4.241107 -7.003620 -17.869397 -0.238996 -3.681458 -5.212467 -5.457304 5.181344 1.400958 -0.012764 0.606592 -0.802250 -11.016497 -4.644208 26.196340 -0.010953 3.237596 20.139880 14.792766 -7.812385 9.543364 0.190594 0.053593 0.226530 
-70.496353 -22.184017 82.328232 0.379622 1.119034 -102.469018 1.627511 0.354433 0.262763 0.813034 0.157661 0.465861 0.813034 0.157661 0.465860 0.609895 0.117627 0.349604 20.225160 -3.001057 -5.461369 1.309803 -3.831732 -10.901391 -5.273783 -9.336152 -2.453589 19.061649 -40.536514 -2.761258 69.558442 13.726185 65.487649 -56.798156 42.754488 83.090248 -3.659287 9.135863 -2.268803 17.726366 40.272892 11.043519 63.241090 -8.574074 -61.371872 -23.767076 -27.475577 -80.446221 4.210506 -7.012509 -17.951426 -0.256302 -3.673344 -5.211383 -5.484536 5.079273 1.503528 0.021605 0.652142 -0.808356 -11.028683 -4.629670 26.070767 -0.024671 3.171811 20.044573 14.471318 -7.576551 9.594300 0.391001 -0.120643 0.201654 
-70.488052 -22.181734 82.325699 0.314777 1.199820 -102.631823 1.711889 0.416942 0.356716 0.798955 0.174336 0.464840 0.798955 0.174336 0.464837 0.599349 0.130145 0.348854 20.597624 -3.025834 -5.369511 1.996306 -3.933749 -10.728482 -5.257567 -9.353485 -2.438405 19.076708 -40.534567 -2.746455 69.583058 13.712403 65.450076 -56.797920 42.761922 83.095357 -3.652829 9.126849 -2.259567 17.710704 40.265635 11.060325 63.250175 -8.583628 -61.388572 -23.762744 -27.452692 -80.464990 4.292767 -6.937342 -17.921446 -0.287502 -3.662683 -5.223667 -5.558469 4.984734 1.549210 0.098370 0.664043 -0.740402 -11.000787 -4.591645 25.999554 -0.007017 3.080142 19.858235 13.903893 -7.359426 9.687772 0.787752 -0.239907 0.133459 
-70.557732 -22.232996 82.333000 0.217940 1.310690 -102.950465 1.844507 0.513331 0.616289 0.780039 0.197835 0.458516 0.780039 0.197835 0.458514 0.585177 0.147792 0.344139 21.006073 -3.057471 -5.261461 2.748934 -4.054787 -10.526215 -5.267476 -9.383732 -2.427432 19.119048 -40.524677 -2.729780 69.590503 13.707131 65.410748 -56.742268 42.760150 83.049172 -3.665725 9.106033 -2.248041 17.685617 40.266574 11.079737 63.290971 -8.606669 -61.377740 -23.761178 -27.436296 -80.528402 4.447827 -6.776744 -17.742067 -0.337111 -3.672009 -5.293747 -5.649907 4.898164 1.505951 0.179144 0.622326 -0.528822 -11.043021 -4.600517 25.925742 0.061304 2.943567 19.643957 13.057328 -7.109962 9.992617 1.404883 -0.351759 0.057022 
-70.639259 -22.310560 82.352844 0.117399 1.311687 -103.217498 1.864505 0.566069 0.820704 0.765899 0.228839 0.448515 0.765899 0.228839 0.448515 0.574593 0.171067 0.336675 21.448112 -3.091901 -5.143083 3.563815 -4.185126 -10.303979 -5.278552 -9.416948 -2.416444 19.158112 -40.533870 -2.718735 69.616444 13.726754 65.314019 -56.710497 42.750103 83.034794 -3.694792 9.107309 -2.241080 17.674771 40.240944 11.116140 63.355482 -8.633385 -61.407574 -23.826043 -27.410618 -80.603308 4.494241 -6.627115 -17.648714 -0.385740 -3.665256 -5.403307 -5.702454 4.715944 1.499080 0.213357 0.613243 -0.299309 -11.211218 -4.605487 25.640438 0.151510 2.821069 19.488796 11.897758 -6.861214 10.309634 2.135558 -0.487493 0.039407 
